<svg width="223" height="48" viewBox="0 0 223 48" fill="none" xmlns="http://www.w3.org/2000/svg">
<path d="M28.0158 20.464C29.9937 20.8359 31.3871 21.674 32.2019 22.9667C33.0167 24.2652 33.4241 26.3075 33.4241 29.0935C33.4241 34.63 31.7591 39.1573 28.4291 42.687C25.0991 46.2108 20.8421 47.9756 15.6581 47.9756C13.6153 47.9756 11.6314 47.6096 9.70663 46.8718C7.78183 46.134 6.12862 45.107 4.74702 43.7907C3.16468 42.3387 1.97794 40.81 1.18676 39.1927C0.395592 37.5754 0 35.9227 0 34.2346C0 32.3458 0.407399 30.8878 1.22219 29.8549C2.03698 28.822 3.31819 28.1196 5.07766 27.7477C4.74702 26.9804 4.50496 26.3311 4.35145 25.8058C4.19794 25.2805 4.12117 24.8732 4.12117 24.584C4.12117 23.5982 4.64076 22.583 5.68582 21.5501C6.73087 20.5171 7.71098 20.0036 8.63795 20.0036C9.03354 20.0036 9.45274 20.0744 9.88966 20.2161C10.3266 20.3578 10.8343 20.5939 11.4071 20.9244C9.71253 16.1375 8.48444 12.4425 7.71689 9.83948C6.94933 7.23648 6.56555 5.44211 6.56555 4.45049C6.56555 3.08701 6.80172 2.04817 7.48661 1.23362C8.32502 0.2361 9.58262 0 10.793 0C13.2374 0 14.1112 2.09539 18.3328 13.8414C18.8996 15.4174 19.3011 16.6392 19.5845 17.5009C19.8265 16.8222 20.169 15.8541 20.6059 14.6028C23.7706 5.46572 25.1227 0.897182 28.7774 0.897182C29.8992 0.897182 30.7908 1.27494 31.4639 2.03637C32.1369 2.79189 32.4676 3.81302 32.4676 5.08206C32.4676 6.05007 32.1015 7.81492 31.3635 10.3884C30.6255 12.956 29.5096 16.3145 28.0158 20.464ZM4.41638 33.9099C4.72341 34.2818 5.15441 34.8307 5.70351 35.5567C7.15596 37.5577 8.49623 38.5552 9.72432 38.5552C10.1435 38.5552 10.5155 38.4253 10.8461 38.1597C11.1768 37.8941 11.3421 37.6226 11.3421 37.3334C11.3421 37.0028 11.1236 36.4539 10.6808 35.6866C10.238 34.9193 9.63579 34.0516 8.86823 33.0836C7.98849 31.9621 7.25635 31.1475 6.67773 30.6281C6.09321 30.1146 5.62677 29.8549 5.27842 29.8549C4.51087 29.8549 3.80233 30.2681 3.15286 31.0885C2.50339 31.9149 2.17868 32.8829 2.17868 34.0044C2.17868 34.9074 2.40305 35.9109 2.85177 37.0205C3.3005 38.1302 3.95588 39.2458 4.812 40.3673C6.11094 42.1026 7.71689 43.4366 9.64169 44.3692C11.5665 45.3018 13.692 45.7681 16.0183 45.7681C20.3048 45.7681 23.8887 44.1685 26.7818 40.9752C29.669 37.782 31.1155 33.7742 31.1155 28.9636C31.1155 27.4939 31.0033 26.3252 30.7849 25.4575C30.5664 24.5899 30.2003 23.9583 29.6985 23.5628C28.7951 22.8191 27.0475 22.1462 24.4437 21.5501C21.8399 20.9598 19.118 20.6588 16.284 20.6588C15.4928 20.6588 14.9319 20.7886 14.6013 21.0543C14.2706 21.3199 14.1053 21.7685 14.1053 22.4059C14.1053 23.8993 14.9378 24.9794 16.6087 25.6523C18.2796 26.3252 20.9838 26.6557 24.7153 26.6557H26.0674C26.3744 26.6557 26.6224 26.7738 26.8113 27.004C27.0002 27.2342 27.1242 27.5824 27.1892 28.0428C26.8172 28.397 26.0438 28.7983 24.8806 29.2469C23.7175 29.6955 22.8259 30.1441 22.2119 30.5809C20.8952 31.5489 19.8324 32.694 19.0295 34.0221C18.2265 35.3501 17.825 36.6074 17.825 37.7938C17.825 38.5198 17.9962 39.3934 18.3387 40.4145C18.6811 41.4356 18.8523 42.0672 18.8523 42.3092V42.5394L18.7874 42.8345C17.8191 42.7696 17.0574 42.2029 16.4965 41.1405C15.9356 40.078 15.6581 38.6555 15.6581 36.873V36.5779C15.481 36.7313 15.3098 36.8435 15.1445 36.9084C14.9792 36.9733 14.7961 37.0087 14.6013 37.0087C14.4005 37.0087 14.2175 36.991 14.0403 36.9615C13.8632 36.9261 13.6684 36.8789 13.4499 36.814C13.5149 37.056 13.568 37.2921 13.5975 37.5223C13.6329 37.7525 13.6448 37.9354 13.6448 38.0653C13.6448 38.8798 13.3259 39.5763 12.6883 40.1548C12.0506 40.7391 11.2949 41.0284 10.4151 41.0284C9.03355 41.0284 7.62241 40.3555 6.19358 39.0038C4.76474 37.6521 4.05032 36.3299 4.05032 35.0314C4.05032 34.7894 4.07985 34.5769 4.13299 34.388C4.19203 34.1991 4.28649 34.0398 4.41638 33.9099ZM14.306 34.7009C14.678 34.7009 15.0205 34.5297 15.3275 34.1873C15.6345 33.845 15.788 33.479 15.788 33.0836C15.788 32.6645 15.4869 31.6965 14.8788 30.1677C14.2765 28.639 13.5208 27.1397 12.6233 25.67C11.9621 24.5721 11.3185 23.7399 10.6808 23.1851C10.0431 22.6243 9.44094 22.3469 8.86823 22.3469C8.4077 22.3469 7.894 22.6361 7.3331 23.2205C6.77219 23.8048 6.4947 24.3479 6.4947 24.8496C6.4947 25.3749 6.77222 26.1658 7.32131 27.2224C7.87041 28.2789 8.60844 29.3945 9.5295 30.5809C10.4978 31.8795 11.4071 32.8888 12.2632 33.6148C13.1193 34.3349 13.7983 34.7009 14.306 34.7009ZM17.5357 18.7877L13.9754 8.50552C13.0543 5.89071 12.3399 4.18488 11.8321 3.38214C11.3244 2.5794 10.7753 2.17803 10.1849 2.17803C9.72434 2.17803 9.35235 2.3551 9.06304 2.70335C8.77964 3.0575 8.63204 3.5297 8.63204 4.11995C8.63204 5.12928 9.01583 6.88823 9.78338 9.3909C10.5509 11.8936 11.7082 15.1813 13.2433 19.2422C13.3732 19.0002 13.5621 18.829 13.8042 18.7287C14.0463 18.6283 14.3769 18.5811 14.7902 18.5811C14.9201 18.5811 15.1858 18.5929 15.5814 18.6165C15.9829 18.6401 16.6323 18.6992 17.5357 18.7877ZM21.2554 28.7688C20.3107 28.7275 19.4133 28.6272 18.5689 28.4737C17.7246 28.3202 16.9157 28.1019 16.1482 27.8126C16.4965 28.515 16.8095 29.2174 17.087 29.9198C17.3645 30.6222 17.5888 31.3128 17.7601 31.9975C18.2855 31.3364 18.8405 30.7403 19.4251 30.2031C20.0096 29.666 20.6177 29.1879 21.2554 28.7688ZM25.6423 19.9033C27.1124 15.9073 28.2638 12.6078 29.0845 10.0048C29.9111 7.40175 30.3184 5.80217 30.3184 5.21192C30.3184 4.57445 30.1827 4.07863 29.9052 3.73039C29.6277 3.38214 29.2498 3.20506 28.7656 3.20506C28.1516 3.20506 27.5257 3.71858 26.888 4.73972C26.2504 5.76085 25.5478 7.40175 24.7802 9.66831L21.4857 19.1891L25.6423 19.9033Z" fill="#B8BEC8"/>
<path d="M64.6796 8.27002L77.3501 39.3231H70.7905L67.6848 31.6322H54.4711L51.4658 39.3231H45.2545L57.8306 8.27002H64.6796ZM56.3486 26.9042H65.8132L61.1311 15.2704H60.9363L56.3486 26.9042Z" fill="#B8BEC8"/>
<path d="M84.9555 39.3229H79.0394V17.5839H84.9555V21.1314C86.0419 18.6641 88.7992 16.9878 92.0583 16.9878C97.874 16.9878 99.9996 20.9307 99.9996 25.7648V39.3229H94.0835V26.9512C94.0835 23.5986 92.755 21.6744 89.8442 21.6744C86.8389 21.6744 84.9614 24.0413 84.9614 27.689V39.3229H84.9555Z" fill="#B8BEC8"/>
<path d="M112.976 31.7812C111.199 31.7812 109.575 31.5333 108.194 30.9903C107.651 31.3326 107.308 31.8756 107.308 32.5662C107.308 33.5519 107.952 34.1953 109.575 34.1953H118.255C123.084 34.1953 125.552 36.8101 125.552 40.3103C125.552 45.7347 119.241 48.0013 112.486 48.0013C106.47 48.0013 101.345 46.4725 101.345 42.4293C101.345 40.21 103.122 38.634 105.684 38.2917C103.712 37.6483 102.679 36.0723 102.679 34.3016C102.679 32.3301 104.061 30.8486 106.18 30.0163C104.309 28.7355 103.175 26.8113 103.175 24.4444C103.175 19.8109 107.267 17.0013 112.988 17.0013C115.651 17.0013 118.113 17.6919 119.89 18.9255C121.124 17.202 123.291 15.8208 125.659 15.8208V20.5546C124.478 20.5546 123.043 20.7494 121.909 21.1449C122.5 22.0834 122.848 23.2166 122.848 24.4444C122.842 28.9775 118.697 31.7812 112.976 31.7812ZM112.486 44.4008C116.826 44.4008 119.979 43.415 119.979 41.296C119.979 39.8676 118.798 39.3246 116.826 39.3246H109.575C107.999 39.3246 106.718 39.968 106.718 41.5439C106.718 43.5154 108.985 44.4008 112.486 44.4008ZM113.029 20.5959C110.809 20.5959 109.28 21.924 109.28 24.4385C109.28 26.9529 110.809 28.281 113.029 28.281C115.297 28.281 116.826 26.9529 116.826 24.4385C116.826 21.924 115.297 20.5959 113.029 20.5959Z" fill="#B8BEC8"/>
<path d="M148.042 32.228C146.909 37.0562 143.16 39.919 137.592 39.919C130.885 39.919 126.055 35.6278 126.055 28.7809C126.055 21.9281 130.938 16.9995 137.444 16.9995C144.547 16.9995 148.196 21.9281 148.196 27.8424V29.9614H131.876C132.071 33.1665 134.587 35.433 137.793 35.433C140.703 35.433 142.427 34.1994 143.266 31.7381L148.042 32.228ZM142.421 26.2605C142.227 23.7461 140.697 21.332 137.391 21.332C134.138 21.332 132.508 23.5513 131.965 26.2605H142.421Z" fill="#B8BEC8"/>
<path d="M156.437 8.27051V39.3236H150.521V8.27051H156.437Z" fill="#B8BEC8"/>
<path d="M166.303 8.27051V34.2002H177.999V39.3295H160.139V8.27051H166.303Z" fill="#B8BEC8"/>
<path d="M179.388 8.27051H185.452V14.0373H179.388V8.27051ZM185.405 17.5847V39.3236H179.489V17.5847H185.405Z" fill="#B8BEC8"/>
<path d="M192.443 31.9329C192.785 34.5477 194.763 35.8757 197.768 35.8757C199.935 35.8757 201.712 35.1379 201.712 33.562C201.712 32.0804 200.726 31.443 198.559 31.0947L195.105 30.5045C190.471 29.7666 187.908 28.0372 187.908 23.9999C187.908 19.8563 191.409 16.9995 196.93 16.9995C202.946 16.9995 206.548 19.7088 206.938 24.5429L202.055 24.7377C201.659 22.2764 199.982 21.0427 196.877 21.0427C194.757 21.0427 193.375 21.9812 193.375 23.4569C193.375 24.6374 194.167 25.328 195.743 25.5759L199.882 26.2665C204.47 27.0043 207.18 28.9285 207.18 33.0189C207.18 37.4576 203.336 39.919 197.715 39.919C192.047 39.919 187.707 37.4517 187.312 32.1335L192.443 31.9329Z" fill="#B8BEC8"/>
<path d="M210.363 21.7285H207.257V18.2283L208.733 17.9804C210.853 17.6381 211.443 16.552 211.939 14.5275L212.63 11.5703H216.231V17.585H222.148V21.7226H216.231V32.4711C216.231 34.3422 217.07 35.1804 218.847 35.1804C220.028 35.1804 221.262 34.7377 222.543 34.1474V38.0431C220.967 39.2236 219.189 39.9142 216.527 39.9142C213.173 39.9142 210.363 38.4385 210.363 33.7992V21.7285Z" fill="#B8BEC8"/>
</svg>
