<svg width="191" height="48" viewBox="0 0 191 48" fill="none" xmlns="http://www.w3.org/2000/svg">
<path fill-rule="evenodd" clip-rule="evenodd" d="M18.7616 30.2282C18.4123 30.367 18.1583 30.6504 17.8782 30.8616C17.4159 31.2099 16.9455 31.5165 16.4379 31.8211C15.8571 32.1695 15.213 32.4903 14.4985 32.704C13.9587 32.8655 13.1071 33.0013 12.4438 32.8958C11.8984 32.8093 11.4557 32.8418 11.0035 32.704C9.3737 32.2065 8.41431 31.1011 7.79649 29.5947C7.43348 28.7096 7.32711 27.7043 7.14368 26.6199C6.9732 25.613 7.02072 23.9501 7.1821 22.9925C7.77404 19.4756 8.52837 17.4044 12.0788 16.8124C14.0722 16.4801 16.137 17.6466 17.187 18.3863C17.5478 18.6406 18.5506 19.5784 19.184 19.1732C19.9913 18.6566 20.0589 15.1423 19.6065 14.0488C19.3078 13.327 18.566 12.9709 17.9166 12.5901C16.2998 11.642 14.2324 11.1666 11.6371 11.2082C11.2852 11.2339 10.9329 11.2595 10.581 11.285C9.76098 11.4305 8.96904 11.5177 8.23816 11.7456C5.39618 12.6321 3.40945 14.2718 2.01626 16.6014C1.2049 17.9582 0.719343 19.5406 0.326404 21.3227C0.0932294 22.3812 0.191919 23.5289 0 24.7006C0.00647145 25.1547 0.0127407 25.6091 0.0192121 26.0633C0.0319528 26.4471 0.0448957 26.8309 0.0576364 27.215C0.212951 28.1405 0.255622 29.0605 0.460889 29.8826C1.49147 34.0109 3.54191 36.867 7.45087 38.0969C8.22684 38.3411 9.06186 38.4436 9.94724 38.596C10.357 38.6217 10.7667 38.6471 11.1762 38.6728C11.8672 38.786 12.7413 38.6627 13.327 38.5578C15.2073 38.2202 16.7688 37.8582 18.1278 37.0415C18.6768 36.7114 19.3484 36.3872 19.6449 35.8132C20.1185 34.8956 20.0919 31.7128 19.7218 30.6694C19.5978 30.3205 19.24 30.0376 18.7616 30.2282ZM190.422 13.3964C190.33 12.7748 190.389 12.258 190.09 11.8801C189.695 11.3818 188.061 11.1559 187.136 11.1698C186.871 11.1955 186.606 11.2211 186.341 11.2466C185.686 11.3853 185.099 11.587 184.606 11.8993C183.616 12.5264 182.72 13.4414 182.021 14.375C181.701 14.8165 181.381 15.2579 181.061 15.6993V15.7309C181.054 15.5004 181.048 15.2696 181.041 15.0392C181.041 14.3601 181.193 12.6673 180.926 12.2532C180.349 11.3586 175.616 11.3782 175.197 12.3686C175.029 12.7664 175.14 13.5536 175.14 14.0593V35.7289C175.14 36.2591 175.017 37.1629 175.235 37.5245C175.466 37.9082 176.077 38.0183 176.592 38.1168C177.956 38.3773 181.467 38.3338 181.944 37.4863C182.082 37.2414 182.021 36.7217 182.021 36.3593V21.9178C182.292 21.5147 182.562 21.1115 182.833 20.7087C183.663 19.4925 184.666 18.1266 186.249 17.7145C187.315 17.4374 188.316 17.9219 189.074 18.1751C189.482 18.3113 189.942 18.2525 190.127 17.9449C190.503 17.3173 190.581 14.4725 190.422 13.3964ZM152.474 22.1991C152.467 18.605 154.868 15.213 158.964 16.1153C159.521 16.2378 160.054 16.41 160.481 16.6717C162.081 17.6522 162.766 19.5768 162.728 22.1991H152.474ZM169.241 19.9572C168.775 17.8412 168.109 16.2034 166.994 14.7732C165.625 13.019 163.545 11.9583 160.981 11.394C160.321 11.2486 159.614 11.2796 158.906 11.1635H158.214C157.525 11.0495 156.348 11.171 155.717 11.2979C154.733 11.4958 153.809 11.6737 152.969 12.0084C149.655 13.328 147.433 15.8825 146.322 19.4004C146.07 20.1998 145.947 20.9973 145.765 21.8966C145.695 22.4789 145.624 23.0614 145.554 23.6439C145.548 23.9125 145.541 24.1815 145.535 24.4501V25.9863C145.548 26.3638 145.56 26.7416 145.573 27.1192C145.83 28.6458 145.911 30.0479 146.361 31.3241C147.653 34.993 149.999 37.0188 153.834 38.1594C154.727 38.4252 155.71 38.4529 156.715 38.62C157.375 38.6394 158.035 38.6586 158.694 38.6778C161.41 38.6778 163.742 38.255 165.822 37.6026C166.673 37.3356 167.752 37.0779 168.108 36.3161C168.49 35.4971 168.58 32.0703 167.743 31.8231C167.112 31.6374 166.45 32.045 166.033 32.2073C164.994 32.6114 163.886 32.8608 162.729 33.148C162.044 33.318 161.305 33.3132 160.558 33.436C159.894 33.5452 158.839 33.5187 158.214 33.4168C157.44 33.2905 156.784 33.2598 156.158 33.0136C153.775 32.0764 152.496 30.0352 152.547 26.6773H163.862C165.11 26.6775 167.749 26.8776 168.511 26.4279C169.406 25.9 169.51 24.8906 169.51 23.4517C169.504 23.0359 169.497 22.6197 169.491 22.2038C169.363 21.4357 169.398 20.6703 169.241 19.9572ZM103.128 30.8998C102.301 32.0151 100.832 33.199 99.3445 33.6442C96.9149 34.3717 94.8099 33.1996 94.3903 31.2837C94.2349 30.5752 94.372 29.711 94.5822 29.1917C95.6398 26.5783 99.4319 26.7456 103.128 26.7733V30.8998ZM110.009 23.3379C110.009 21.4602 110.126 19.4224 109.778 17.8489C108.971 14.2004 107.164 12.4864 103.614 11.5922C102.929 11.4194 102.243 11.415 101.483 11.285C100.464 11.111 98.5241 11.0663 97.469 11.2466C96.4199 11.4261 95.4032 11.5282 94.4734 11.784C92.7232 12.2657 89.8764 13.0146 89.2501 14.5284C88.7876 15.6466 88.9839 19.1047 90.3638 18.8854C91.216 18.7499 91.8122 18.2727 92.4953 17.9449C94.7456 16.8652 100.568 15.1227 102.481 17.8105C103.24 18.8765 103.267 20.5753 103.249 22.436C96.9887 22.4334 91.3988 22.7339 88.9045 26.4663C88.3987 27.2232 88.0523 28.075 87.829 29.1341C87.797 29.4795 87.7651 29.8251 87.7331 30.1706C87.7267 30.5736 87.7202 30.9766 87.7137 31.3797C87.8274 32.061 87.8403 32.707 88.0211 33.2988C88.8551 36.029 90.7531 37.5486 93.5516 38.3274C94.4612 38.5804 96.2846 38.8777 97.5075 38.6728C98.3152 38.5374 99.0584 38.4703 99.7543 38.2506C101.161 37.8065 102.31 37.0552 103.345 36.2354C103.665 35.9284 103.985 35.6212 104.305 35.3141C104.298 36.0867 104.12 37.5233 104.574 37.8667C105.355 38.4577 109.431 38.4015 109.913 37.6557C110.103 37.362 110.009 36.6304 110.009 36.1778V23.3379ZM85.4323 11.8801C85.038 11.3818 83.4033 11.1559 82.4779 11.1698C82.2134 11.1955 81.9487 11.2211 81.6841 11.2466C81.0289 11.3853 80.4412 11.587 79.9484 11.8993C78.9585 12.5264 78.0626 13.4414 77.3632 14.375C77.0433 14.8165 76.7232 15.2579 76.4032 15.6993V15.7309C76.3968 15.5004 76.3903 15.2696 76.384 15.0392C76.384 14.3601 76.5359 12.6673 76.2685 12.2532C75.6912 11.3586 70.9587 11.3782 70.5399 12.3686C70.3716 12.7664 70.4821 13.5536 70.4821 14.0593V35.7289C70.4821 36.2591 70.3597 37.1629 70.5777 37.5245C70.8091 37.9082 71.42 38.0183 71.9349 38.1168C73.2981 38.3773 76.8097 38.3338 77.2868 37.4863C77.4247 37.2414 77.3632 36.7217 77.3632 36.3593V21.9178C77.634 21.5147 77.905 21.1115 78.1758 20.7087C79.0054 19.4925 80.0082 18.1266 81.5917 17.7145C82.6573 17.4374 83.6583 17.9219 84.4167 18.1751C84.8246 18.3113 85.2847 18.2525 85.4693 17.9449C85.8457 17.3173 85.9238 14.4725 85.7648 13.3964C85.673 12.7748 85.7314 12.258 85.4323 11.8801ZM38.003 21.0157C37.6129 22.9157 36.6064 23.9513 34.6617 24.2976C31.0741 24.9365 28.9046 21.5806 30.2067 18.4055C30.5985 17.4501 31.315 16.7136 32.2804 16.3328C32.6637 16.1816 33.1363 16.2275 33.5672 16.064C35.6731 16.0543 36.864 16.6784 37.619 18.0023C37.8065 18.3309 37.914 18.7641 38.003 19.1732C38.1205 19.7124 38.1112 20.4902 38.003 21.0157ZM30.4179 37.5021C30.6482 37.3166 30.8788 37.131 31.1091 36.9455C32.114 36.9774 33.1191 37.0095 34.1242 37.0415C34.8923 37.0607 35.6604 37.0799 36.4284 37.0991C38.2322 37.3802 40.1758 37.9965 39.6355 40.3619C39.56 40.6918 39.4462 41.0374 39.2898 41.3022C38.0445 43.4097 33.3875 43.9089 30.61 42.7609C29.4591 42.2851 28.4669 41.2882 28.9968 39.5367C29.2356 38.747 29.8377 37.9688 30.4179 37.5021ZM59.1202 17.401H63.1883C63.6901 17.401 64.5081 17.5075 64.8466 17.3052C65.5983 16.8559 65.5951 15.1625 65.5213 13.9696C65.4804 13.3105 65.4608 12.6641 65.1937 12.2249C64.8919 11.7295 64.2213 11.8033 63.4199 11.8033H59.1202V7.81581C59.1202 7.28929 59.2367 6.46969 59.0628 6.0519C58.8828 5.62037 58.397 5.4987 57.8935 5.38106C56.5996 5.07909 53.3828 5.07889 52.5458 5.70688C52.1567 5.99895 52.239 6.73305 52.239 7.41319V11.8033H38.7644C37.9246 11.8033 37.384 11.6141 36.675 11.4772C35.4084 11.2331 33.6032 11.151 32.2473 11.3814C28.222 12.0658 25.5827 13.7685 24.3695 17.2478C23.9011 18.5911 23.6853 20.8445 24.0819 22.4813C24.3191 23.4592 24.6892 24.3137 25.1938 25.031C25.411 25.2993 25.6282 25.5677 25.8454 25.8361C25.8901 25.881 25.935 25.9256 25.9797 25.9703C24.9038 26.7695 23.8635 28.3642 23.4877 29.8619C22.8926 32.2352 24.1517 34.7763 25.7879 35.3447C25.4302 35.6385 25.0722 35.9326 24.7145 36.2267C23.9217 36.8654 23.2044 37.8795 22.7787 38.8721C22.5765 39.3434 22.4458 39.8659 22.3376 40.425C22.0675 41.8239 22.4713 43.2785 22.9702 44.125C24.1863 46.1874 26.4131 47.0418 29.1038 47.6332C29.7598 47.7773 30.4088 47.7638 31.1166 47.8824C31.9668 48.0249 32.9308 47.9984 33.8892 47.9974C34.4451 47.9707 35.3524 47.9271 35.9083 47.9002C36.7433 47.8133 37.5601 47.8022 38.3234 47.614C41.6511 46.7934 44.6334 45.4572 45.8946 42.5913C46.1668 41.973 46.3716 41.3222 46.5271 40.5784C46.8125 39.2135 46.5373 37.5706 46.1247 36.5907C45.1938 34.3797 43.3937 33.1638 40.8919 32.5267C40.248 32.3626 39.5592 32.3177 38.8603 32.2009C38.2404 32.1754 37.6206 32.1497 37.001 32.1243C36.477 32.1049 35.953 32.0857 35.4292 32.0667C33.183 31.7029 30.5394 32.4679 29.5448 30.8204C29.3466 30.4921 29.2779 29.928 29.4105 29.4593C29.5541 28.9522 29.9062 28.6502 30.1006 28.2324C30.2013 28.1716 31.2131 28.6464 31.519 28.7501C32.6307 29.1274 34.4866 29.2841 35.8893 29.0183C36.5263 28.8978 37.1636 28.8509 37.7484 28.6733C40.7396 27.7649 42.5915 26.2446 43.6712 23.4207C44.0745 22.3659 44.3932 20.507 44.0737 19.1073C43.9175 18.4231 43.6637 17.9245 43.3836 17.401H52.239V27.4989C52.239 30.3159 52.2414 32.933 53.085 34.8567C53.944 36.8167 55.4753 37.8489 57.7749 38.3914C58.6009 38.5865 60.0881 38.7714 61.1197 38.6029C62.346 38.4024 63.4338 38.3326 64.3872 37.9114C65.477 37.4299 65.3045 36.6306 65.5213 35.2988V34.1562C65.4185 33.5072 65.518 32.7789 65.1937 32.3541C64.8982 31.9672 64.1524 32.3228 63.8245 32.4501C62.7256 32.8764 60.9959 32.9429 60.1229 32.2583C59.0804 31.4409 59.12 29.5159 59.1202 27.6574V17.401ZM133.053 28.9231C132.688 29.3453 132.323 29.7675 131.958 30.1896C130.869 31.5446 129.63 32.5117 127.503 32.8576C126.334 33.0476 125.34 32.4836 124.757 32.0323C123.364 30.954 122.895 29.2054 122.51 27.0998C122.472 26.5368 122.433 25.9737 122.395 25.4108C122.277 24.686 122.352 23.7328 122.472 23.0693C122.894 20.7156 123.49 18.6899 125.179 17.6187C125.519 17.4032 125.934 17.2342 126.373 17.1229C126.646 17.0972 127.082 17.056 127.355 17.0301C129.548 17.131 130.97 18.3657 131.977 19.6146C132.207 19.8992 132.946 20.5371 133.053 20.8429V28.9231ZM139.934 3.2598C139.934 2.64334 140.077 1.31257 139.876 0.851737C139.487 -0.0412327 137.226 -0.0103086 135.881 0.0046483C135.629 0.0236477 135.22 0.0545724 134.969 0.0735718C134.246 0.176653 133.451 0.244162 133.149 0.755528C132.997 1.01202 133.053 1.5347 133.053 1.93066V14.4138C132.699 14.0929 132.346 13.7717 131.992 13.4505C131.074 12.7358 130.106 12.0759 128.928 11.6205C126.496 10.6807 122.89 11.2496 121.064 12.314C118.222 13.9702 116.698 16.5092 115.802 20.1159C115.623 20.8332 115.586 21.5483 115.455 22.3313C115.313 23.1713 115.164 24.7715 115.3 25.7027C115.32 26.2484 115.339 26.7943 115.358 27.3403C115.535 28.4808 115.601 29.5804 115.86 30.615C116.79 34.3395 118.746 37.2193 122.297 38.3207C123.401 38.6631 125.103 38.9665 126.596 38.7253C127.382 38.5982 128.131 38.4982 128.793 38.2437C130.385 37.6317 131.589 36.7334 132.802 35.7586C133.226 35.3412 133.65 34.9236 134.074 34.5065C134.067 35.3879 133.888 37.5201 134.363 37.8778C135.185 38.4953 139.427 38.557 139.857 37.6272C140.088 37.127 139.934 35.6402 139.934 34.9495V3.2598Z" fill="#B8BEC8"/>
</svg>
