<svg width="155" height="34" viewBox="0 0 155 34" fill="none" xmlns="http://www.w3.org/2000/svg">
<path d="M18.7666 24.883C21.051 24.1729 22.3782 21.2396 22.3782 16.9136C22.3782 11.1814 20.2271 8.48407 15.9313 8.82632L14.5613 8.93351L14.4747 16.6455C14.4293 20.889 14.4598 24.5573 14.542 24.7977C14.7249 25.3315 17.1579 25.3836 18.7666 24.883ZM28.6627 2.73395C31.7027 4.39917 34.1396 8.07347 34.9087 12.1298C35.0982 13.1305 35.2535 15.3193 35.2535 16.9996C35.2535 18.68 35.0982 20.8688 34.9087 21.8692C34.1153 26.0525 31.6552 29.6008 28.3658 31.2869C25.2408 32.8887 22.9331 33.1316 11.007 33.1316H0V25.3231L0.976965 25.1088C3.02481 24.65 3.06523 24.4873 3.06523 17.0963C3.06523 13.1749 2.93541 10.1595 2.74925 9.7703C2.55571 9.36481 1.96154 9.02419 1.21663 8.89096L0 8.67612V0.86739L11.4192 0.878085C23.7655 0.884828 25.6391 1.07781 28.6627 2.73395ZM89.8627 21.3863L90.926 21.6121C92.9417 22.0353 93.6232 24.5752 92.0851 25.9344C91.4072 26.5338 90.959 26.65 89.7764 26.5245C86.6135 26.1878 85.442 23.3789 85.6187 16.5386C85.7121 12.9224 85.8265 12.1375 86.4903 10.6496C87.4549 8.48919 88.8694 7.38943 90.6863 7.38943C93.0019 7.38943 94.8263 9.01465 95.2654 11.4757L95.4573 12.5374H102.125V0.86739H98.9058C96.308 0.86739 95.6872 0.961555 95.6872 1.36077C95.6872 2.22383 95.2345 2.22709 93.6179 1.36077C91.8309 0.403307 89.4414 -0.0744942 87.0174 0.00944071C86.2095 0.0373415 85.3985 0.134529 84.6037 0.288216C76.8457 1.78742 72.6157 7.60566 72.5905 16.828C72.5793 20.7893 73.0261 23.2224 74.2857 26.0418C76.2699 30.4811 79.7795 32.9652 85.2642 33.8289C88.7464 34.3774 93.2045 33.4516 95.419 31.7157C96.2704 31.0486 96.5878 31.2086 97.0091 32.5311C97.1732 33.0461 97.6171 33.1316 100.123 33.1316H103.045V28.0367C103.045 22.3891 103.133 22.1155 105.114 21.6442L106.11 21.4077V14.5971H89.8627V21.3863ZM154.545 8.08649V0.86739H127.568V13.5674H133.977L134.188 11.4434C134.498 8.38224 135.161 7.73215 137.963 7.73215C139.141 7.73215 140.173 7.86189 140.262 8.02185C140.35 8.18228 137.394 12.2853 133.69 17.1394L126.956 25.9665V33.1316H154.545V20.4319H147.801V22.2982C147.801 23.7742 147.643 24.3652 147.064 25.1195C146.402 25.9797 146.105 26.0932 143.979 26.2134C142.681 26.2869 141.492 26.1962 141.335 26.0204C141.158 25.8223 143.618 22.3382 147.792 16.8922L154.545 8.08649ZM56.3321 25.6342C57.5701 24.2478 57.932 22.2903 57.932 16.9996C57.932 11.7087 57.5701 9.75124 56.3321 8.36526C55.7027 7.66054 54.9141 7.32642 54.1097 7.3248C52.7682 7.32154 51.3819 8.24343 50.6032 9.91004C49.9241 11.363 49.6628 19.4072 50.2009 22.3091C50.7299 25.1629 52.0122 26.6105 54.0232 26.6103C55.1901 26.6103 55.6231 26.4278 56.3321 25.6342ZM54.0329 0.0954681C63.3893 0.137319 69.0181 4.42939 70.5869 12.7199C72.1471 20.969 69.1874 28.7659 63.3254 31.8661C60.0773 33.5839 54.8962 34.3886 50.7373 33.8182C43.6998 32.8531 39.0391 28.7121 37.4502 22.0304C36.9055 19.7393 36.9024 14.2405 37.4502 11.9368C38.4873 7.57567 40.6619 4.43706 44.0122 2.46587C47.031 0.689755 49.6367 0.0754726 54.0329 0.0954681ZM106.416 8.76192H107.346C107.928 8.76192 108.562 9.08394 109.032 9.60941C109.776 10.4432 109.789 10.5143 109.789 16.7853C109.789 20.2708 109.702 23.3766 109.597 23.6819C109.367 24.3531 107.917 25.2373 107.049 25.2373C106.452 25.2373 106.416 25.4343 106.416 29.1844V33.1316H124.197V25.3231L123.219 25.1088C121.167 24.6491 121.131 24.4966 121.131 16.9675V10.1883L121.936 9.4699C122.38 9.07859 123.07 8.76192 123.469 8.76192C124.189 8.76192 124.197 8.73658 124.197 4.81489V0.86739H106.416V8.76192Z" fill="#B8BEC8"/>
</svg>
