<svg width="150" height="40" viewBox="0 0 150 40" fill="none" xmlns="http://www.w3.org/2000/svg">
<path d="M0.0027642 0.0151295C8.90879 0.0151295 17.8129 0.0227246 26.7189 0.0113351C26.7285 2.38415 26.7381 4.75697 26.7151 7.13168C20.4259 7.12978 14.1348 7.12599 7.84366 7.13358C7.8475 10.1119 7.83983 13.0922 7.8475 16.0706C13.3551 16.0592 18.8627 16.0687 24.3684 16.0668C24.399 18.432 24.3626 20.7972 24.3875 23.1624C18.8742 23.1567 13.3628 23.1681 7.85133 23.1567C7.83792 28.768 7.84366 34.3792 7.8475 39.9905C5.23642 39.962 2.62534 39.962 0.0142584 39.9885C-0.0144769 26.6647 0.0104269 13.339 0.0027642 0.0151295Z" fill="#B8BEC8"/>
<path d="M31.9142 39.9905C31.9046 26.661 31.9027 13.3315 31.9161 0.00191825C41.1191 0.0303921 50.324 0.0152076 59.5288 0.00951288C59.5307 2.38423 59.5192 4.75894 59.5346 7.13176C52.8891 7.13176 46.2416 7.12037 39.5961 7.13935C39.6172 9.92599 39.598 12.7145 39.6057 15.5031C45.7091 15.4879 51.8105 15.4974 57.9139 15.4974C57.8909 17.8607 57.9177 20.2259 57.8966 22.5892C51.8009 22.5949 45.7033 22.5987 39.6076 22.5854C39.5923 26.0061 39.6229 29.4268 39.5923 32.8455C46.5386 32.8683 53.4848 32.8493 60.433 32.855C60.4503 35.2278 60.4503 37.6006 60.433 39.9753C50.9274 39.9829 41.4198 39.9507 31.9142 39.9905Z" fill="#B8BEC8"/>
<path d="M66.3276 0.00191825C69.0938 0.022799 71.8601 0.0284938 74.6263 0.00191825C79.6167 9.29007 84.6051 18.5782 89.6051 27.8607C89.6223 18.5801 89.6204 9.29957 89.6051 0.0209019C92.0437 0.00761417 94.4824 0.0247008 96.9211 0.011413C96.9325 13.3353 96.9306 26.6591 96.923 39.9829C94.3138 39.964 91.7046 39.9753 89.0974 39.9753C83.9787 30.4632 78.8485 20.9567 73.7029 11.4579C73.7049 20.9681 73.7068 30.4765 73.701 39.9867C71.2432 39.9659 68.7835 39.9564 66.3237 39.9924C66.341 26.6629 66.3333 13.3315 66.3276 0.00191825Z" fill="#B8BEC8"/>
<path d="M104.411 0.00959124C110.109 0.0266755 115.806 0.00958892 121.503 0.0190802C124.628 0.0684348 127.827 0.941632 130.235 2.98605C132.758 4.94505 134.231 7.89873 135.152 10.8771C135.93 13.5897 136.214 16.4181 136.262 19.2313C136.149 23.5764 135.53 28.0259 133.505 31.9363C132.237 34.6451 130.124 36.9819 127.476 38.4226C125.536 39.4686 123.319 39.909 121.128 39.9659C115.561 39.9925 109.992 39.945 104.425 39.9906C104.387 26.663 104.413 13.3353 104.411 0.00959124ZM112.176 6.97618C112.155 15.6531 112.164 24.33 112.17 33.0069C114.647 32.9955 117.122 33.0069 119.599 33.0012C120.612 32.9747 121.647 32.8494 122.582 32.4431C124.392 31.7028 125.677 30.0988 126.53 28.4037C127.969 25.3133 128.283 21.8319 128.189 18.4701C128.103 15.2488 127.608 11.7996 125.465 9.2408C124.176 7.65765 122.042 7.13184 120.084 7.00466C117.448 6.9572 114.812 7.01415 112.176 6.97618Z" fill="#B8BEC8"/>
<path d="M141.501 40C141.472 26.6667 141.476 13.3333 141.499 0C144.106 0.0379651 146.715 0.0094908 149.323 0.0113891C149.334 13.3314 149.34 26.6534 149.321 39.9753C146.714 39.9867 144.106 39.9374 141.501 40Z" fill="#B8BEC8"/>
</svg>
