<svg width="191" height="56" viewBox="0 0 191 56" fill="none" xmlns="http://www.w3.org/2000/svg">
<path d="M155.974 9.10839C158.412 9.10839 160.302 7.08995 160.302 4.55395C160.302 2.06971 158.412 0.0512695 155.974 0.0512695C153.586 0.0512695 151.596 2.06971 151.596 4.55395C151.546 7.08995 153.586 9.10839 155.974 9.10839Z" fill="#B8BEC8"/>
<path d="M118.664 12.2678H125.181V16.4082C126.822 13.9239 130.454 11.6467 134.732 11.6467C142.841 11.6467 149.01 18.8407 149.01 27.6908C149.01 36.4891 142.841 43.7348 134.732 43.7348C130.454 43.7348 126.872 41.4576 125.181 38.9734V56.0007H118.664V12.2678ZM133.538 17.8056C128.265 17.8056 124.634 22.1012 124.634 27.6908C124.634 33.2286 128.265 37.576 133.538 37.576C138.762 37.576 142.393 33.2803 142.393 27.6908C142.393 22.153 138.762 17.8056 133.538 17.8056Z" fill="#B8BEC8"/>
<path d="M164.037 12.2661H170.554V16.4582C172.344 13.3529 175.727 11.645 179.558 11.645C186.423 11.645 190.9 16.717 190.9 24.532V43.112H184.383V25.6706C184.383 20.8056 181.995 17.8556 178.215 17.8556C173.887 17.8556 170.554 21.375 170.554 27.9478V43.112H164.037V12.2661Z" fill="#B8BEC8"/>
<path d="M69.0298 11.6444C65.1993 11.6444 61.8165 13.3523 60.0256 16.4576V0.0512695H53.5087V43.1114H60.0256V27.9472C60.0256 21.3743 63.3586 17.855 67.6866 17.855C71.4674 17.855 73.8552 20.805 73.8552 25.67V43.1114H80.3721V24.5314C80.3223 16.7164 75.8948 11.6444 69.0298 11.6444Z" fill="#B8BEC8"/>
<path d="M159.174 12.2671H152.657V43.113H159.174V12.2671Z" fill="#B8BEC8"/>
<path d="M99.5112 43.7348C90.7557 43.7348 83.9901 36.6444 83.9901 27.6908C83.9901 18.7372 90.7557 11.6467 99.5112 11.6467C108.267 11.6467 115.032 18.7372 115.032 27.6908C115.032 36.6444 108.267 43.7348 99.5112 43.7348ZM99.5112 37.4207C104.735 37.4207 108.416 33.1768 108.416 27.6908C108.416 22.2047 104.735 17.9608 99.5112 17.9608C94.238 17.9608 90.5567 22.2047 90.5567 27.6908C90.5567 33.1768 94.238 37.4207 99.5112 37.4207Z" fill="#B8BEC8"/>
<path d="M25.5719 8.33255C25.5222 10.4027 24.1293 13.3528 21.7912 13.3528C20.3485 13.3528 19.1546 12.1107 19.1546 10.6098V10.558C19.1048 8.12553 18.0602 6.00358 16.4185 4.50268C15.1748 3.41583 13.6327 2.69126 11.9413 2.48424C13.3839 0.931589 15.4236 0 17.6622 0C20.4978 0 23.0846 1.70791 24.577 4.19215C25.2735 5.43427 25.6217 6.93517 25.5719 8.33255Z" fill="#B8BEC8"/>
<path d="M16.3372 8.53892C17.5809 10.1951 18.3271 13.3521 16.5362 14.9048C15.392 15.8881 13.7504 15.7329 12.8052 14.5943C11.263 12.7828 9.12392 11.8512 6.9848 11.7995C5.34316 11.7477 3.70151 12.2653 2.30859 13.2486C2.45783 11.1267 3.40303 9.00472 5.14417 7.50383C7.38278 5.58889 10.5168 5.01959 13.2032 6.1582C14.4468 6.62399 15.5413 7.45207 16.3372 8.53892Z" fill="#B8BEC8"/>
<path d="M9.3564 14.8537C11.2965 15.2678 13.8834 17.2345 13.4854 19.6152C13.2367 21.1161 11.8437 22.0994 10.4011 21.8407H10.3513C8.06298 21.4784 5.82437 22.2029 4.18272 23.6003C2.93905 24.6354 1.94411 26.1363 1.49639 27.8442C0.302461 26.0846 -0.244755 23.8591 0.103474 21.5301C0.650689 18.5801 2.69031 16.0958 5.47614 15.1125C6.71981 14.6985 8.11272 14.595 9.3564 14.8537Z" fill="#B8BEC8"/>
<path d="M7.92613 24.3768C9.66728 23.3934 12.8511 23.1864 13.9953 25.2566C14.7415 26.5505 14.2937 28.2584 13.0501 29.0347C11.0602 30.2769 9.81652 32.2953 9.36879 34.5208C9.07031 36.1769 9.21955 37.9366 9.96576 39.541C7.97588 39.0235 6.13524 37.6778 5.04081 35.6594C3.59815 33.0199 3.6479 29.7593 5.14031 27.1716C5.83676 25.9812 6.78195 24.9979 7.92613 24.3768Z" fill="#B8BEC8"/>
<path d="M12.7009 32.6054C13.4471 30.6905 15.7355 28.4132 17.8746 29.2413C19.2675 29.7589 19.9639 31.3633 19.4665 32.7607C18.7203 35.0379 19.0188 37.4186 20.0634 39.3853C20.8594 40.8862 22.0533 42.0766 23.5955 42.8529C21.7051 43.7845 19.5162 43.9915 17.4269 43.1634C14.6908 42.1283 12.7009 39.5923 12.2532 36.5905C12.1039 35.2449 12.2532 33.8475 12.7009 32.6054Z" fill="#B8BEC8"/>
<path d="M21.4452 35.7106C20.7985 33.7439 21.1467 30.4834 23.3356 29.6553C24.7285 29.1377 26.2209 29.8623 26.7184 31.3114C27.5641 33.5369 29.2555 35.1931 31.2951 36.0211C32.7875 36.6422 34.5287 36.7457 36.1703 36.3317C35.3246 38.2984 33.7327 39.9028 31.6433 40.7308C28.9073 41.7659 25.7732 41.1449 23.6341 39.1264C22.6392 38.1431 21.8432 37.0045 21.4452 35.7106Z" fill="#B8BEC8"/>
<path d="M30.0989 32.2446C28.4075 31.1577 26.6166 28.4147 27.8105 26.3445C28.5567 25.0507 30.1486 24.5849 31.442 25.3094C33.4817 26.448 35.77 26.6033 37.8594 25.8787C39.4016 25.3094 40.7945 24.2743 41.7894 22.8252C42.3366 24.8954 42.1376 27.1726 40.9935 29.1911C39.5508 31.8306 36.765 33.435 33.8796 33.3315C32.4867 33.3315 31.1436 32.9692 30.0989 32.2446Z" fill="#B8BEC8"/>
<path d="M34.5769 23.8075C32.587 24.1181 29.5525 23.1865 29.1545 20.8057C28.856 19.3566 29.8509 17.9075 31.2936 17.6487H31.3433C33.6317 17.1829 35.4723 15.7338 36.5668 13.8188C37.4125 12.3697 37.8104 10.6618 37.6612 8.9021C39.3526 10.0925 40.646 12.0074 40.9942 14.2846C41.4917 17.2347 40.3475 20.34 38.1089 22.2031C37.0642 23.0312 35.8206 23.6523 34.5769 23.8075Z" fill="#B8BEC8"/>
<path d="M32.7899 14.3847C31.4467 15.9373 28.5614 17.2829 26.7705 15.7303C25.6264 14.7469 25.4771 13.039 26.4223 11.8487C27.865 9.98548 28.4122 7.60475 28.0639 5.37929C27.8152 3.72313 27.069 2.11872 25.8751 0.824849C27.9147 0.617829 30.0538 1.23889 31.795 2.73978C34.0336 4.65472 35.0783 7.81177 34.4813 10.7618C34.2326 12.1074 33.6356 13.4013 32.7899 14.3847Z" fill="#B8BEC8"/>
</svg>
