<svg width="235" height="64" viewBox="0 0 235 64" fill="none" xmlns="http://www.w3.org/2000/svg">
<path fill-rule="evenodd" clip-rule="evenodd" d="M234.182 46.4472C234.178 47.4712 233.779 48.4515 233.073 49.1715C232.367 49.8916 231.412 50.292 230.419 50.2844C229.427 50.3113 228.467 49.9259 227.753 49.215C227.04 48.504 226.635 47.5272 226.628 46.5045C226.639 45.4729 227.048 44.4883 227.764 43.7682C228.481 43.0482 229.446 42.6521 230.446 42.6673C231.431 42.6481 232.381 43.0379 233.084 43.7488C233.786 44.4598 234.182 45.4322 234.182 46.4472ZM227.572 46.4472C227.67 48.0005 228.953 49.1884 230.462 49.122C231.97 49.0557 233.151 47.7592 233.12 46.203C233.089 44.6469 231.859 43.4008 230.349 43.3976C229.583 43.4274 228.86 43.7701 228.339 44.3502C227.818 44.9303 227.542 45.7002 227.572 46.4902V46.4472ZM229.78 48.3372H228.905V44.5859C229.365 44.5181 229.829 44.4751 230.294 44.4571C230.731 44.4062 231.173 44.5124 231.543 44.7577C231.802 44.935 231.95 45.2401 231.932 45.5595C231.903 46.0031 231.591 46.3723 231.168 46.4616C231.529 46.5761 231.71 46.8624 231.821 47.3779C231.866 47.7011 231.96 48.015 232.099 48.3085H231.21C231.043 48.0243 230.934 47.7074 230.891 47.3779C230.891 46.9913 230.613 46.8052 230.155 46.8195H229.752L229.78 48.3372ZM229.78 46.2038H230.182C230.641 46.2038 231.03 46.032 231.03 45.6311C231.03 45.2302 230.794 45.0727 230.238 45.0727C230.086 45.052 229.932 45.052 229.78 45.0727V46.2038ZM66.13 24.6322C65.7915 26.5865 65.3816 28.8481 64.8295 31.1098C65.4488 36.4608 67.3069 42.5946 72.2487 42.4535C74.8939 42.3765 77.1777 40.734 79.1261 38.3215C77.5071 33.4322 76.8628 28.2757 77.2293 23.141C77.5519 15.8138 79.5777 1.19795 86.2615 1.19795C93.5259 1.19795 89.7453 19.3812 88.5969 23.4875C87.4485 27.5938 85.5776 33.9329 82.4422 38.7963C83.7372 41.3664 86.3902 42.9794 89.2808 42.9539C90.8087 42.9691 92.3149 42.5935 93.6549 41.8632C92.3229 39.8127 91.6729 37.3975 91.7969 34.9595C91.9001 28.5562 95.5258 23.6543 99.6419 23.6543C104.287 23.603 105.242 28.2226 103.719 33.2656C102.719 36.5104 100.903 39.4475 98.4419 41.799C99.5385 42.2711 100.735 42.4693 101.926 42.3765C104.166 42.3257 106.296 41.4044 107.861 39.81C108.442 39.3866 109.126 39.5534 108.584 40.7853C108.042 42.0172 105.926 45.2637 100.3 45.2637C98.6791 45.2747 97.0939 44.791 95.7581 43.8778C93.8188 45.1 91.5986 45.811 89.3066 45.9438C85.7357 46.2254 82.3259 44.4171 80.5712 41.3114C78.6071 43.8446 75.6609 45.4378 72.4552 45.7C67.2553 45.931 64.3779 42.0043 62.8811 37.1666C61.4747 40.4516 59.5392 42.9796 56.7651 43.4159C52.8942 44.0062 50.8684 41.0933 49.8491 37.4232C48.0555 41.5937 45.6298 44.9301 42.4427 44.9301C37.8105 44.9557 37.9912 37.7697 37.9912 37.7697C35.6041 43.5185 30.5203 49.6652 23.7978 48.6514C19.1011 47.9585 16.3398 44.5195 14.7657 40.195C12.3003 42.4333 9.5758 44.3717 6.64965 45.9695C3.92711 47.4452 2.05617 47.9328 0.843282 47.7532C-0.369604 47.5735 -0.188962 46.8677 0.843282 46.4699C5.86423 44.3731 10.3323 41.1546 13.9012 37.0639C12.9749 32.6964 12.6924 28.2182 13.0625 23.7698C13.6947 15.801 17.7979 -1.2145 25.7075 0.0687182C34.4557 1.55725 28.8687 18.9705 26.1462 24.8734C23.9253 29.5995 20.9443 33.9338 17.3205 37.7056C18.5721 41.9787 20.9204 45.5845 25.1397 45.4947C31.6429 45.3535 35.3847 36.371 37.475 30.9558C38.1589 29.2106 38.946 28.5562 40.0556 28.6974C41.1653 28.8385 41.733 29.7111 41.5524 31.5204C41.2958 33.4469 41.2008 35.3913 41.2685 37.3334C41.4879 39.3352 41.7847 41.2986 43.0879 41.3756C44.3911 41.4526 47.0233 37.0896 48.9329 31.2766C48.8064 29.4609 48.8064 27.6387 48.9329 25.8229C48.9836 25.1868 49.0405 24.5721 49.1047 23.9822C46.8295 23.9568 45.0104 23.9775 44.1203 24.0643C43.7609 26.2957 42.1307 27.2607 40.2693 27.4115C37.9202 27.5924 34.7496 26.3259 34.7496 24.1246C34.7496 21.9233 37.9074 20.0084 40.2437 19.8275C42.1178 19.6767 43.7737 20.4608 44.0947 22.6922C44.9971 22.5273 46.9246 22.3471 49.3362 22.1801C49.8682 18.6673 50.7621 16.3801 52.3135 16.263C53.9439 16.1398 54.1632 18.7822 53.8227 21.9129C56.5116 21.7751 59.3646 21.6645 61.8958 21.6069C62.9065 12.9642 64.8345 11.9589 65.8746 12.0412C67.0058 12.1306 68.1497 13.6209 66.666 21.5738C67.8262 21.5938 68.7139 21.6427 69.2032 21.7273C71.7834 21.9233 74.1068 22.5415 74.0298 23.6421C73.9528 24.7428 72.6563 25.1499 69.1134 24.9086C68.5608 24.8214 67.5069 24.7267 66.13 24.6322ZM61.6281 24.3768C59.0719 24.2538 56.2042 24.1449 53.518 24.0712C53.5039 24.1547 53.4895 24.2381 53.4748 24.3216C53.1651 26.1309 52.6877 28.4664 52.0297 30.8917C52.0684 31.4948 52.12 32.0979 52.1974 32.701C52.791 37.3078 54.378 40.7211 56.2748 40.7211C58.7522 40.7596 60.5715 36.063 61.7586 31.4306C61.5055 29.0877 61.4618 26.7272 61.6281 24.3768ZM15.9398 27.0933C15.9098 29.4164 16.0695 31.7381 16.4173 34.0355C17.9012 32.1488 19.2343 30.1494 20.4043 28.0557C24.8946 19.9971 28.83 4.31618 24.8946 3.59757C20.9591 2.87897 16.1334 17.9953 15.9398 27.0933ZM51.32 19.4838V19.2913C51.32 19.2913 51.3071 19.2785 51.32 19.4838ZM80.4551 21.2675C79.9102 25.9382 80.128 30.6659 81.1002 35.2674C83.4906 30.6057 85.1816 25.621 86.1195 20.4719C87.8485 11.0916 87.2808 5.25293 86.1195 4.88079C84.9583 4.50866 81.5648 9.35923 80.4551 21.2675ZM94.9839 34.1895C94.7311 36.1875 95.1727 38.2114 96.2355 39.9255C98.1995 37.9851 99.6913 35.6236 100.597 33.0218C101.526 30.3014 101.487 26.9393 99.5258 26.7725C97.5645 26.6057 95.371 29.8779 94.9839 34.1895ZM127.314 32.598C130.977 33.3246 134.54 33.8002 134.465 38.2784C134.314 42.5188 130.564 45.861 125.713 46.931C120.863 48.001 117.212 45.9667 116.775 45.5175C116.337 45.0684 115.925 44.0776 117.125 44.3815C118.325 44.6853 120.138 45.2005 124.876 44.1173C128.626 43.2718 131.227 40.2995 131.302 38.3973C131.377 36.495 128.626 36.1384 125.363 35.3986C121.788 34.606 118.15 33.5756 118.15 29.5465C118.2 25.9402 120.913 22.9018 125.351 21.7658C129.789 20.6297 132.552 22.03 133.239 22.5716C134.233 23.1527 134.61 24.4637 134.089 25.5306C133.289 26.6535 131.977 25.9402 131.339 25.5306C130.702 25.1211 129.801 24.4738 126.651 24.7909C123.501 25.1079 121.138 27.3272 121.138 29.3484C121.138 31.3695 123.901 31.9243 127.314 32.598ZM229.558 35.19C229.878 35.7383 229.328 37.0308 228.304 38.5452C227.28 40.0596 223.492 46.3522 217.964 45.5559C212.435 44.7595 211.987 38.9891 211.898 36.0255C211.821 31.4039 212.755 27.3046 211.898 26.8868C211.322 26.6127 209.441 28.2446 207.047 32.5528C205.404 35.6208 203.921 38.7759 202.607 42.0048C201.647 44.0284 201.199 44.4592 200.047 44.0284C199.318 43.7281 198.895 42.8795 199.318 40.5426C199.625 39.1066 200.034 37.5269 200.597 33.8844C200.91 32.1946 201.107 30.4846 201.186 28.7668C199.293 29.6824 197.273 30.2945 195.197 30.5815C195.24 32.539 194.923 34.4874 194.263 36.3258C192.113 42.6315 188.58 43.9892 186.175 43.8326C182.399 43.5976 180.428 40.5426 180.428 36.7305C180.308 34.944 180.606 33.1539 181.299 31.5084C179.989 32.1696 178.617 32.6945 177.203 33.075C176.205 38.1013 173.095 43.1928 168.527 43.6367C165.693 44.0704 162.922 42.5289 161.744 39.8638C161.098 38.3694 160.696 36.7774 160.554 35.1508C158.868 37.1817 156.892 38.9421 154.692 40.3729C153.236 41.3342 151.694 42.1516 150.085 42.8142C149.309 43.6261 148.352 44.2351 147.295 44.5898C142.637 46.065 141.728 43.5323 143.456 42.2268C144.749 41.2737 145.555 41.5218 147.859 40.6993C149.611 38.8475 150.84 36.547 151.416 34.0411C152.478 30.2942 152.862 25.0721 149.689 23.7666C145.632 22.1608 142.202 26.9652 139.873 32.1873C141.252 38.3304 141.905 44.62 141.818 50.9216C141.703 56.9009 139.873 64.4729 137.313 63.9768C131.17 62.8019 132.847 45.595 134.421 39.1718C135.073 36.4967 135.928 33.8776 136.981 31.3387C136.737 29.9287 136.469 28.6232 136.149 27.3176C135.458 24.5238 134.293 23.5969 135.087 22.9964C135.611 22.6047 137.352 23.4794 138.721 27.6832C141.281 23.0616 144.825 19.38 149.407 19.85C156.215 20.5028 156.267 29.9287 154.398 34.8636C153.95 35.9472 153.541 36.9655 153.118 37.9055C156.224 35.3455 158.998 32.3931 161.373 29.1193C162.205 28.0749 162.704 28.0096 163.484 28.336C164.265 28.6623 164.367 29.4195 164.073 31.2734C163.779 33.1272 163.587 40.7385 168.104 40.9604C170.984 41.104 172.903 37.4485 173.825 33.7669C172.518 33.8945 171.2 33.8063 169.922 33.5058C165.609 32.4484 163.497 29.9679 164.073 25.5552C164.228 23.8625 165.043 22.3043 166.335 21.2312C167.628 20.1582 169.289 19.6604 170.945 19.85C173.275 20.085 177.933 22.1869 177.536 30.1376C178.865 29.6166 180.15 28.9834 181.375 28.2446C183.193 27.2001 184.421 26.5996 185.112 27.7093C185.522 28.3621 185.496 28.7929 184.92 30.242C184.057 32.1759 183.62 34.2793 183.641 36.4041C183.833 38.5713 184.882 40.7123 186.904 40.7776C188.926 40.8429 191.089 38.3363 191.869 33.0097C191.942 32.3161 191.972 31.6184 191.959 30.9209C187.71 30.6859 183.845 27.9182 184.984 24.6283C186.226 20.9858 190.564 22.3566 191.997 23.4925C193.316 24.6507 194.244 26.2041 194.647 27.9312C195.338 27.8529 195.926 27.7485 196.617 27.6179C198.599 27.2827 200.473 26.468 202.082 25.2419C203.016 24.798 204.488 25.4116 204.296 27.409C204.104 29.4065 203.72 32.0175 203.72 32.0175C204.835 29.8148 206.196 27.7514 207.777 25.8685C209.645 23.9494 211.821 22.0825 214.176 23.388C216.159 24.5238 215.455 27.8529 215.187 30.3856C214.79 33.9497 214.355 40.5557 217.746 41.7829C220.574 42.8404 222.865 40.7515 224.977 38.9238C227.088 37.096 229.059 34.3022 229.558 35.19ZM138.324 46.7178C138.196 43.7673 138.017 40.7515 137.723 37.7749C137.416 38.7018 137.173 39.6026 136.981 40.386C135.675 45.7517 135.074 59.1725 136.699 59.8644C137.045 59.995 138.631 53.7807 138.324 46.7178ZM170.114 30.712C171.456 31.0807 172.855 31.1826 174.234 31.0123C174.337 30.5292 174.337 30.0984 174.337 29.7068C174.529 25.3855 172.136 23.1791 169.819 23.3488C168.286 23.5394 167.046 24.7141 166.748 26.2602C166.428 28.101 167.081 29.9026 170.114 30.712ZM188.849 27.2132H188.862C189.663 27.7466 190.594 28.0405 191.55 28.0618C191.244 26.9336 190.41 26.0336 189.323 25.6596C188.069 25.3463 187.314 26.0643 188.849 27.2132Z" fill="#B8BEC8"/>
</svg>
