<svg width="177" height="42" viewBox="0 0 177 42" fill="none" xmlns="http://www.w3.org/2000/svg">
<path d="M44.9194 21.7353V1.47099H51.2391V2.81032C51.2391 3.54711 51.2504 4.14985 51.264 4.14985C51.2778 4.14985 51.6766 3.90701 52.1505 3.61028C57.7398 0.109541 65.8648 -0.944709 73.1521 0.885422C79.7175 2.53432 84.477 6.44827 86.169 11.5902C87.1577 14.595 87.1032 17.9364 86.018 20.8423C84.6682 24.4572 81.8932 27.3635 77.8905 29.3545C74.3878 31.0968 70.3886 31.9692 65.9049 31.9692C62.1879 31.9692 58.7214 31.3493 55.6698 30.1393C54.4589 29.6592 52.9068 28.871 51.9653 28.258L51.2391 27.7854V42H44.9194V21.7353ZM68.9618 26.5819C72.5166 26.0777 75.2747 24.9498 77.3425 23.1548C78.9079 21.7961 79.9979 19.9091 80.4109 17.8433C80.5799 16.9983 80.5803 15.0031 80.4119 14.1607C79.9256 11.7294 78.5324 9.60569 76.447 8.11651C75.6063 7.51634 73.8988 6.6609 72.8088 6.29428C69.731 5.25898 65.999 4.95238 62.581 5.45404C56.6466 6.32488 52.6357 9.26829 51.5596 13.5414C51.0848 15.4268 51.1696 17.4622 51.7971 19.241C53.2221 23.2817 57.4247 25.9707 63.3634 26.6417C64.5574 26.7767 67.8357 26.7416 68.962 26.5819H68.9618ZM89.9133 21.7353V1.47099H96.2329V2.81032C96.2329 3.54711 96.2467 4.14985 96.2633 4.14985C96.2801 4.14985 96.6278 3.93209 97.036 3.66616C97.9809 3.05019 99.8456 2.129 101.041 1.68776C106.203 -0.217395 112.505 -0.524786 118.021 0.859954C127.012 3.11712 132.306 9.30106 131.806 16.9612C131.424 22.8083 127.534 27.6113 121.134 30.1353C119.047 30.9586 116.907 31.4778 114.23 31.8109C112.817 31.9866 109.008 31.9866 107.533 31.8105C103.358 31.3124 99.692 30.0726 96.8339 28.1917L96.2329 27.7962V42H89.9133V21.7353ZM114.109 26.5521C119.032 25.8169 122.501 23.8335 124.324 20.7122C125.383 18.8991 125.78 16.4871 125.387 14.2477C124.571 9.59325 120.48 6.37246 114.217 5.45305C110.083 4.84636 105.416 5.45068 102.244 7.00343C99.005 8.58856 97.0558 10.9551 96.3905 14.1103C96.216 14.9387 96.2163 17.0682 96.3915 17.88C96.8627 20.0655 97.9278 21.8737 99.5443 23.2326C101.77 25.1038 104.667 26.218 108.426 26.6488C109.669 26.7912 112.872 26.7367 114.109 26.5521ZM18.8158 31.9274C15.4635 31.6312 12.6022 30.9708 10.1692 29.9316C4.63495 27.5678 1.13954 23.5783 0.190911 18.5427C0.00967516 17.5811 -0.0594237 15.4143 0.0580443 14.379C0.74311 8.34197 5.19031 3.56014 12.2214 1.30061C15.963 0.0982878 20.5685 -0.294588 24.7026 0.236091C32.2764 1.20861 38.0055 4.7206 40.5237 9.9348C42.5741 14.1802 42.3139 19.3372 39.8493 23.3019C38.739 25.0878 36.9112 26.9309 35.0276 28.1637C32.097 30.0814 28.5968 31.2745 24.3457 31.8046C23.4942 31.9108 19.6057 31.9971 18.8158 31.9274ZM23.2989 26.6482C26.5955 26.2984 29.3688 25.3571 31.4554 23.8803C33.1611 22.6729 34.5111 20.8933 35.1168 19.0535C35.4714 17.9767 35.5417 17.4711 35.5417 15.9995C35.5417 14.5322 35.4724 14.0308 35.1206 12.9532C33.9642 9.41123 30.5823 6.77639 25.857 5.73636C21.7138 4.82425 16.882 5.14132 13.3023 6.55982C10.7196 7.58327 8.68118 9.24006 7.48557 11.287C6.21455 13.4636 5.92592 16.4281 6.73694 18.983C7.61074 21.7359 9.91252 24.0396 13.08 25.3318C14.8053 26.0356 16.9415 26.5262 19.0563 26.7039C19.8677 26.772 22.4514 26.738 23.2989 26.6482ZM153.661 31.9297C153.528 31.9147 153.065 31.8685 152.63 31.8275C149.141 31.4968 145.474 30.3952 142.785 28.8702C139.151 26.8087 136.619 23.8785 135.463 20.3958C134.681 18.0389 134.547 15.3901 135.088 12.953C135.905 9.26809 138.148 6.1391 141.631 3.82489C146.225 0.773087 152.979 -0.582434 159.499 0.23925C164.916 0.921748 169.379 2.90291 172.485 6.00367C174.85 8.36507 176.209 11.1322 176.602 14.3834C176.704 15.2284 176.689 16.9371 176.57 17.8336C175.718 24.2896 170.6 29.224 162.762 31.1464C160.386 31.7292 158.894 31.9057 156.099 31.9345C154.89 31.9469 153.793 31.9447 153.661 31.9297ZM157.816 26.6802C161.989 26.2964 165.39 24.9211 167.574 22.7351C169.052 21.255 169.91 19.6256 170.248 17.6563C170.388 16.8449 170.386 15.1531 170.244 14.3115C169.484 9.78021 165.488 6.49546 159.568 5.53459C158.147 5.3038 157.201 5.22858 155.721 5.22858C149.084 5.22858 143.934 7.73134 141.953 11.9193C141.363 13.1676 141.09 14.4558 141.09 15.9995C141.09 18.0363 141.565 19.6519 142.637 21.2615C144.604 24.2165 148.335 26.1043 153.273 26.6437C154.291 26.7548 156.788 26.775 157.817 26.6804L157.816 26.6802Z" fill="#B8BEC8"/>
</svg>
