<svg width="188" height="50" viewBox="0 0 188 50" fill="none" xmlns="http://www.w3.org/2000/svg">
<path fill-rule="evenodd" clip-rule="evenodd" d="M24.9078 4.54545C13.6527 4.54545 4.52869 13.7033 4.52869 25C4.52869 36.2967 13.6527 45.4545 24.9078 45.4545C36.1629 45.4545 45.2869 36.2967 45.2869 25C45.2869 13.7033 36.1629 4.54545 24.9078 4.54545ZM0 25C0 11.1929 11.1516 0 24.9078 0C38.664 0 49.8156 11.1929 49.8156 25C49.8156 38.8071 38.664 50 24.9078 50C11.1516 50 0 38.8071 0 25Z" fill="#B8BEC8"/>
<path d="M24.9083 39.051C32.6391 39.051 38.9061 32.7607 38.9061 25.0014C38.9061 17.242 32.6391 10.9518 24.9083 10.9518C17.1776 10.9518 10.9106 17.242 10.9106 25.0014C10.9106 32.7607 17.1776 39.051 24.9083 39.051Z" fill="#B8BEC8"/>
<path fill-rule="evenodd" clip-rule="evenodd" d="M24.908 12.8092C18.2005 12.8092 12.7629 18.2669 12.7629 24.9993C12.7629 31.7317 18.2005 37.1894 24.908 37.1894C31.6156 37.1894 37.0532 31.7317 37.0532 24.9993C37.0532 18.2669 31.6156 12.8092 24.908 12.8092ZM9.05762 24.9993C9.05762 16.213 16.1541 9.09021 24.908 9.09021C33.662 9.09021 40.7585 16.213 40.7585 24.9993C40.7585 33.7857 33.662 40.9084 24.908 40.9084C16.1541 40.9084 9.05762 33.7857 9.05762 24.9993Z" fill="#B8BEC8"/>
<path d="M81.7733 16.4755C83.7681 16.4755 85.5742 16.9354 87.1916 17.8553C88.809 18.7482 90.0759 20.0198 90.9925 21.6703C91.909 23.3207 92.3672 25.2011 92.3672 27.3115C92.3672 29.4489 91.909 31.3429 90.9925 32.9933C90.0759 34.6438 88.809 35.9289 87.1916 36.8488C85.6012 37.7417 83.7951 38.1881 81.7733 38.1881C80.0481 38.1881 78.4846 37.8364 77.0829 37.1329C75.7081 36.4024 74.576 35.3472 73.6864 33.9673V45.8586H70.8155V16.6378H73.5651V20.8586C74.4277 19.4517 75.5599 18.3694 76.9616 17.6118C78.3903 16.8543 79.9942 16.4755 81.7733 16.4755ZM81.5712 35.6313C83.0538 35.6313 84.4016 35.2931 85.6146 34.6167C86.8277 33.9132 87.7712 32.9257 88.4451 31.654C89.1459 30.3824 89.4964 28.9349 89.4964 27.3115C89.4964 25.6881 89.1459 24.2541 88.4451 23.0096C87.7712 21.7379 86.8277 20.7504 85.6146 20.0469C84.4016 19.3434 83.0538 18.9917 81.5712 18.9917C80.0616 18.9917 78.7003 19.3434 77.4873 20.0469C76.3012 20.7504 75.3577 21.7379 74.6568 23.0096C73.9829 24.2541 73.646 25.6881 73.646 27.3115C73.646 28.9349 73.9829 30.3824 74.6568 31.654C75.3577 32.9257 76.3012 33.9132 77.4873 34.6167C78.7003 35.2931 80.0616 35.6313 81.5712 35.6313Z" fill="#B8BEC8"/>
<path d="M105.541 16.4755C108.318 16.4755 110.447 17.1789 111.93 18.5859C113.412 19.9657 114.154 22.022 114.154 24.7547V37.9852H111.404V34.6573C110.757 35.7666 109.8 36.6324 108.533 37.2547C107.293 37.877 105.811 38.1881 104.085 38.1881C101.713 38.1881 99.8263 37.6199 98.4246 36.4836C97.0228 35.3472 96.3219 33.8456 96.3219 31.9787C96.3219 30.1659 96.9689 28.7049 98.2628 27.5956C99.5837 26.4863 101.673 25.9316 104.53 25.9316H111.283V24.6329C111.283 22.7931 110.771 21.3997 109.746 20.4527C108.722 19.4787 107.226 18.9917 105.258 18.9917C103.91 18.9917 102.616 19.2217 101.376 19.6816C100.136 20.1145 99.0715 20.7233 98.1819 21.5079L96.888 19.357C97.9663 18.437 99.2602 17.7336 100.77 17.2466C102.279 16.7325 103.87 16.4755 105.541 16.4755ZM104.53 35.9154C106.148 35.9154 107.536 35.5501 108.695 34.8196C109.854 34.062 110.717 32.9798 111.283 31.5729V28.0826H104.611C100.972 28.0826 99.1524 29.3543 99.1524 31.8975C99.1524 33.1421 99.6241 34.1297 100.568 34.8602C101.511 35.5637 102.832 35.9154 104.53 35.9154Z" fill="#B8BEC8"/>
<path d="M141.117 16.6378V37.9852H138.368V34.0891C137.613 35.3878 136.575 36.4024 135.254 37.1329C133.933 37.8364 132.424 38.1881 130.726 38.1881C127.949 38.1881 125.752 37.417 124.135 35.8748C122.544 34.3056 121.749 32.0193 121.749 29.0161V16.6378H124.62V28.732C124.62 30.9776 125.173 32.6822 126.278 33.8456C127.383 35.009 128.96 35.5907 131.009 35.5907C133.246 35.5907 135.012 34.9143 136.306 33.5615C137.6 32.1816 138.246 30.2742 138.246 27.8391V16.6378H141.117Z" fill="#B8BEC8"/>
<path d="M154.859 38.1881C153.134 38.1881 151.476 37.9446 149.886 37.4576C148.322 36.9435 147.096 36.3077 146.206 35.5501L147.5 33.2774C148.39 33.9809 149.508 34.5626 150.856 35.0225C152.204 35.4554 153.606 35.6719 155.061 35.6719C157.002 35.6719 158.431 35.3743 159.347 34.779C160.291 34.1567 160.763 33.2909 160.763 32.1816C160.763 31.397 160.507 30.7882 159.994 30.3553C159.482 29.8954 158.835 29.5572 158.053 29.3407C157.272 29.0972 156.234 28.8672 154.94 28.6508C153.215 28.3261 151.827 28.0014 150.775 27.6768C149.724 27.325 148.821 26.7433 148.066 25.9316C147.338 25.1199 146.974 23.9971 146.974 22.5631C146.974 20.7774 147.716 19.3164 149.198 18.18C150.681 17.0436 152.743 16.4755 155.385 16.4755C156.76 16.4755 158.134 16.6649 159.509 17.0436C160.884 17.3954 162.016 17.8689 162.906 18.4641L161.652 20.7774C159.9 19.5599 157.811 18.9511 155.385 18.9511C153.552 18.9511 152.163 19.2758 151.22 19.9251C150.303 20.5745 149.845 21.4268 149.845 22.482C149.845 23.2936 150.101 23.943 150.613 24.43C151.153 24.917 151.813 25.2823 152.595 25.5258C153.377 25.7422 154.455 25.9722 155.83 26.2157C157.528 26.5404 158.889 26.8651 159.913 27.1898C160.938 27.5144 161.814 28.0691 162.542 28.8537C163.27 29.6383 163.633 30.7206 163.633 32.1005C163.633 33.9674 162.852 35.4554 161.288 36.5648C159.752 37.647 157.609 38.1881 154.859 38.1881Z" fill="#B8BEC8"/>
<path d="M187.46 28.2044H169.669C169.83 30.423 170.68 32.2222 172.216 33.6021C173.753 34.9549 175.693 35.6313 178.039 35.6313C179.36 35.6313 180.573 35.4013 181.678 34.9414C182.783 34.4544 183.74 33.7509 184.549 32.831L186.166 34.6979C185.223 35.8342 184.036 36.7 182.608 37.2953C181.206 37.8905 179.656 38.1881 177.958 38.1881C175.774 38.1881 173.833 37.7282 172.135 36.8083C170.464 35.8613 169.157 34.5626 168.213 32.9122C167.27 31.2617 166.798 29.3948 166.798 27.3115C166.798 25.2282 167.243 23.3613 168.132 21.7109C169.049 20.0604 170.289 18.7752 171.852 17.8553C173.443 16.9354 175.222 16.4755 177.19 16.4755C179.157 16.4755 180.923 16.9354 182.486 17.8553C184.05 18.7752 185.276 20.0604 186.166 21.7109C187.056 23.3342 187.5 25.2011 187.5 27.3115L187.46 28.2044ZM177.19 18.9511C175.141 18.9511 173.416 19.614 172.014 20.9398C170.639 22.2385 169.857 23.943 169.669 26.0534H184.751C184.562 23.943 183.767 22.2385 182.365 20.9398C180.99 19.614 179.265 18.9511 177.19 18.9511Z" fill="#B8BEC8"/>
</svg>
