<svg width="233" height="36" viewBox="0 0 233 36" fill="none" xmlns="http://www.w3.org/2000/svg">
<path d="M0.377949 32.9799L0.8592 29.4389C3.09312 30.8622 6.77056 32.6326 11.6509 32.6326C17.2873 32.6326 20.4491 30.4108 20.4491 26.4879C20.4491 16.1775 0 23.0512 0 9.7203C0 3.40213 4.12417 0 11.5477 0C18.6963 0 22.0989 2.95083 22.7174 7.91519L19.2118 8.60949C18.6621 4.89489 16.1531 3.1244 11.479 3.1244C6.52993 3.1244 3.60865 5.3462 3.60865 9.37315C3.60865 20.135 23.8861 12.6712 24.0235 26.4186C24.0579 32.8409 19.9336 36 11.7195 36C5.67074 35.9306 2.26832 34.2295 0.377949 32.9799Z" fill="#B8BEC8"/>
<path d="M33.1644 14.7898V29.5093C33.1644 32.2172 34.3672 32.842 36.1888 32.842C37.8728 32.842 38.9727 32.356 39.7287 32.0436L40.0037 35.1332C39.1789 35.411 37.6322 35.9317 35.2952 35.9317C31.6866 35.9317 29.6588 34.6472 29.6588 29.544V14.7898H25.3284V11.8043H29.6588V4.93066H33.1644V11.8043H40.5536V14.7898H33.1644Z" fill="#B8BEC8"/>
<path d="M55.6075 11.6293L55.3671 15.1008C55.0922 14.9967 54.4389 14.8925 53.5797 14.8925C50.0739 14.8925 47.8402 19.0585 47.8402 22.8771V35.3054H44.3347V11.8029H47.3939L47.6343 16.3159C48.9398 13.3303 51.0366 11.3169 53.5107 11.3169C54.6115 11.3169 55.2291 11.4905 55.6075 11.6293Z" fill="#B8BEC8"/>
<path d="M77.294 33.5001C76.0909 34.5416 72.9635 35.9649 68.151 35.9649C60.6586 35.9649 56.9136 31.4518 56.9136 23.7798C56.9136 16.5242 60.5908 11.3169 68.4259 11.3169C74.6129 11.3169 77.156 14.5454 77.156 18.0864C77.156 24.0574 72.1376 25.9321 60.5908 26.4181C61.3119 31.0701 64.2334 32.8404 68.4259 32.8404C72.516 32.8404 75.6089 31.0701 76.6062 30.2715L77.294 33.5001ZM60.4182 23.5714C70.5227 23.1895 73.6847 22.044 73.6847 18.3294C73.6847 16.4547 72.3792 14.4065 68.3236 14.4065C64.0276 14.4065 60.5217 16.8018 60.4182 23.5714Z" fill="#B8BEC8"/>
<path d="M100.903 11.8029V35.3747H97.981L97.6038 31.9726C96.0568 34.3333 93.4102 35.9649 89.7675 35.9649C83.5472 35.9649 79.5261 31.5561 79.5261 24.0228C79.5261 16.0729 83.959 11.3169 90.2482 11.3169C93.7886 11.3169 96.2294 12.7055 97.6383 14.7189L97.981 11.8376H100.903V11.8029ZM97.398 26.1751V21.9398C97.398 18.6418 95.7474 14.3718 90.5922 14.3718C85.7809 14.3718 82.9974 18.0516 82.9974 23.9881C82.9974 29.6813 85.575 32.8058 90.2482 32.8058C94.7168 32.8405 97.398 29.9591 97.398 26.1751Z" fill="#B8BEC8"/>
<path d="M141.077 20.69V35.3747H137.572V21.2455C137.572 17.0102 135.922 14.5106 132.279 14.5106C127.914 14.5106 125.475 17.9475 125.475 21.0719V35.34H122.038V20.9678C122.038 16.8366 120.354 14.476 116.779 14.476C112.414 14.476 110.009 17.9475 110.009 21.1066V35.34H106.503V11.8029H109.218L109.7 15.8299C111.109 13.2262 113.788 11.3169 117.673 11.3169C121.315 11.3169 123.791 13.0179 124.856 16.2118C126.23 13.3651 129.048 11.3169 133.104 11.3169C138.225 11.3169 141.077 14.4413 141.077 20.69Z" fill="#B8BEC8"/>
<path d="M171.534 0.520264L158.886 21.9745V35.3747H152.322V21.9745L139.674 0.520264H147.064L155.656 15.8299L164.316 0.520264H171.534Z" fill="#B8BEC8"/>
<path d="M190.021 11.8029V35.3747H185.175L184.385 32.4933C182.838 34.6109 180.26 35.9649 176.892 35.9649C170.705 35.9649 166.409 31.4866 166.409 23.9881C166.409 16.0729 171.118 11.3169 177.339 11.3169C180.604 11.3169 182.872 12.5319 184.35 14.3024L184.9 11.8029H190.021ZM183.593 25.3072V21.9052C183.353 19.1626 181.807 16.7672 178.404 16.7672C174.967 16.7672 172.631 19.232 172.631 23.8839C172.631 28.258 174.657 30.5146 178.163 30.5146C181.6 30.4799 183.593 28.2927 183.593 25.3072Z" fill="#B8BEC8"/>
<path d="M208.342 11.6987L207.963 17.8434C207.586 17.7045 206.898 17.4963 205.833 17.4963C203.358 17.4963 201.056 19.7528 201.056 24.231V35.3747H194.594V11.8029H199.784L200.334 15.3439C201.606 12.8791 203.53 11.3169 205.97 11.3169C207.207 11.3169 208.032 11.5598 208.342 11.6987Z" fill="#B8BEC8"/>
<path d="M232.228 0.520264V35.3747H226.832L226.213 32.6669C224.53 34.5762 221.986 35.9648 218.584 35.9648C212.912 35.9648 208.72 32.0421 208.72 24.0227C208.72 16.0035 213.153 11.3168 220.199 11.3168C222.536 11.3168 224.391 11.7682 225.8 12.3582V0.520264H232.228ZM225.766 24.5434V18.2252C224.632 17.4268 223.051 16.7671 220.92 16.7671C217.483 16.7671 215.181 19.0237 215.181 23.9186C215.181 28.6399 217.312 30.4799 220.095 30.4799C223.188 30.4799 225.766 28.1539 225.766 24.5434Z" fill="#B8BEC8"/>
</svg>
