<svg width="150" height="32" viewBox="0 0 150 32" fill="none" xmlns="http://www.w3.org/2000/svg">
<path d="M76.8391 11.8024L77.5838 12.4249C79.4607 13.8656 80.2283 15.3389 80.2283 17.4017V27.0933C80.2283 29.0132 79.6616 29.918 78.1534 30.0698C77.9875 30.0889 77.8346 30.1681 77.7239 30.2923C77.6133 30.4164 77.5527 30.5768 77.5538 30.7425V30.9211H90.6866V30.7187C90.6903 30.5581 90.6357 30.4014 90.5328 30.2774C90.4299 30.1533 90.2854 30.0702 90.1259 30.0431C88.7556 29.8347 88.2219 28.9269 88.2219 27.0933V9.19728C84.6223 10.539 80.8055 11.43 76.8391 11.8024Z" fill="white"/>
<path d="M91.5293 7.81019L92.9443 8.93343C93.9638 9.73412 94.5305 10.7193 94.5545 12.3684L94.5724 24.081V24.3311C94.5724 28.6768 96.6953 30.9152 100.569 30.9152C102.905 30.9152 103.657 30.6443 104.971 30.1472C104.971 30.1472 102.632 28.8822 102.572 23.834C102.572 23.3458 102.641 9.29358 102.641 9.29358L107.1 9.29061L107.738 7.13857C106.761 7.56124 105.444 7.73388 103.702 7.73388H102.614V0.448558C99.3208 3.42113 95.5894 5.91175 91.5293 7.81019Z" fill="white"/>
<path d="M128.566 7.81019L129.981 8.93343C131 9.73412 131.567 10.7193 131.591 12.3684L131.609 24.081V24.3311C131.609 28.6768 133.732 30.9152 137.605 30.9152C139.941 30.9152 140.694 30.6443 142.007 30.1472C142.007 30.1472 139.668 28.8822 139.608 23.834C139.608 23.3458 139.677 9.29358 139.677 9.29358L144.136 9.29061L144.775 7.13857C143.797 7.56124 142.481 7.73388 140.739 7.73388H139.65V0.448558C136.357 3.42113 132.626 5.91175 128.566 7.81019Z" fill="white"/>
<path fill-rule="evenodd" clip-rule="evenodd" d="M50.1024 4.6851L50.8401 5.30185C52.7171 6.7425 53.4847 8.21588 53.4847 10.2846V23.8784C53.8924 29.5666 59.1396 30.9864 61.988 31.3734C63.5641 31.5919 65.1636 31.5838 66.7374 31.3496C67.9773 31.1337 69.1791 30.7407 70.3054 30.1828C74.1253 28.3611 76.0023 24.825 76.0023 19.9226C75.9813 13.3415 72.1104 8.81417 67.0492 8.81417C64.7105 8.81417 62.6716 9.75178 61.3523 11.4395V0.542927C57.8501 2.40105 54.0746 3.80745 50.1024 4.6851ZM61.3733 20.9466C61.3733 26.8937 61.6282 29.7244 64.3057 29.7244C66.9413 29.7244 67.1961 26.8967 67.1961 20.9466C67.1961 14.9964 66.9833 12.1658 64.3057 12.1658C61.6282 12.1658 61.3733 14.9994 61.3733 20.9466Z" fill="white"/>
<path d="M0.229815 4.65375C4.05249 3.79611 7.69167 2.44851 11.0789 0.679799V11.8979C12.803 9.64462 15.3666 8.89156 17.9601 8.89156C21.87 8.89156 24.0888 11.3502 24.0888 15.9102V27.1497C24.0888 29.1588 24.7094 29.9804 26.4035 30.0518C26.5019 30.0602 26.5931 30.1061 26.658 30.18C26.7229 30.2538 26.7564 30.3498 26.7513 30.4477V30.9448H14.3141L14.3052 30.4477C14.3051 30.3651 14.3303 30.2845 14.3774 30.2165C14.4245 30.1484 14.4913 30.0962 14.569 30.0667C15.7234 29.647 16.0952 28.7689 16.0952 27.1556V16.5829C16.0772 13.8832 15.6064 12.6182 13.6965 12.6182C11.9544 12.6182 11.4027 13.9249 11.4027 16.5829V27.1675C11.4027 28.7659 11.8015 29.6797 12.9019 30.0756C12.9885 30.1032 13.064 30.1571 13.1179 30.2298C13.1717 30.3025 13.2011 30.3902 13.2018 30.4804V30.9448H0.761582L0.74659 30.4358C0.747126 30.3318 0.787335 30.232 0.859113 30.1563C0.93089 30.0806 1.0289 30.0348 1.13338 30.028C2.75249 29.9238 3.42412 29.132 3.42412 27.1556V9.90656C3.40113 9.14323 3.21776 8.39307 2.88576 7.70418C2.55377 7.01529 2.08046 6.40284 1.49618 5.90609L0.179901 4.84644L0 4.72142C0.0756974 4.6995 0.152302 4.67694 0.229815 4.65375Z" fill="white"/>
<path d="M86.1661 6.78804C85.7509 6.96219 85.3042 7.05002 84.8535 7.0461C84.4095 7.05104 83.9691 6.96767 83.5581 6.80091C83.1471 6.63416 82.774 6.38739 82.4606 6.07517C82.1473 5.76294 81.9001 5.39159 81.7336 4.98301C81.5672 4.57442 81.4848 4.13688 81.4914 3.69619C81.498 3.25551 81.5935 2.82059 81.7721 2.41711C81.9507 2.01362 82.209 1.64974 82.5315 1.34691C82.8541 1.04409 83.2345 0.808453 83.6503 0.653914C84.0661 0.499374 84.5088 0.429055 84.9524 0.447106C85.7884 0.477162 86.5828 0.816724 87.1793 1.39898C87.7758 1.98123 88.1312 2.76401 88.1756 3.59331C88.2002 4.04009 88.1323 4.48712 87.9761 4.90683C87.8199 5.32654 87.5787 5.71 87.2674 6.03356C86.9561 6.35711 86.5812 6.61389 86.1661 6.78804Z" fill="white"/>
<path fill-rule="evenodd" clip-rule="evenodd" d="M49.4159 16.8419C49.4159 16.8419 49.242 25.8221 49.308 26.7389C49.4699 28.9118 51.5657 28.4861 51.5657 28.4861C51.4212 29.0532 51.0872 29.5548 50.6182 29.9089C49.4459 30.9448 47.7968 30.9448 46.6964 30.9448C44.1808 30.9448 42.4987 29.772 41.7101 27.5574C39.5933 29.9655 37.2156 31.5549 34.3941 31.5282C29.4528 31.4776 27.8038 27.3104 28.2115 24.6315C28.6763 21.5508 31.024 20.3244 34.586 19.2737C36.6099 18.6754 41.3293 17.8003 41.3293 17.8003V15.0203C41.3293 12.011 40.6397 10.6388 38.7328 10.6388C37.2186 10.6388 36.1362 11.6687 36.1362 12.9575C36.1362 13.4889 36.1656 13.9538 36.1902 14.343C36.2079 14.6231 36.2231 14.8639 36.2231 15.0619C36.2231 17.1634 34.9248 18.4522 33.1108 18.4522C31.3808 18.4522 30.2564 17.2914 30.2564 15.5322C30.2564 11.9247 33.9894 8.91835 39.9861 8.91835C43.3142 8.91835 45.9528 9.81131 47.5539 11.2728C49.242 12.8623 49.4159 14.2642 49.4159 16.8419ZM41.3323 21.6999V19.6012C38.7028 20.3006 36.5799 21.7115 36.7029 24.9143C36.7448 26.0394 37.3025 27.4384 39.0806 27.3431C41.3326 27.228 41.3325 25.2199 41.3323 21.6999Z" fill="white"/>
<path fill-rule="evenodd" clip-rule="evenodd" d="M127.472 26.7776C127.403 25.8578 127.577 16.8806 127.577 16.8806C127.577 14.3029 127.403 12.898 125.718 11.3085C124.117 9.84703 121.478 8.94513 118.147 8.94513C112.15 8.94513 108.418 11.9544 108.418 15.559C108.418 17.3211 109.542 18.479 111.272 18.479C113.089 18.479 114.387 17.1902 114.387 15.0887C114.387 14.8923 114.372 14.6522 114.354 14.3726L114.354 14.3722V14.3719C114.33 13.9823 114.3 13.5161 114.3 12.9843C114.3 11.6955 115.38 10.6686 116.897 10.6686C118.801 10.6686 119.493 12.0407 119.493 15.047V17.8271C119.493 17.8271 114.771 18.7022 112.75 19.3005C109.188 20.3542 106.84 21.5806 106.373 24.6583C105.968 27.3372 107.614 31.5043 112.555 31.5549C115.38 31.5847 117.754 29.9923 119.874 27.5842C120.651 29.8166 122.336 30.9745 124.846 30.9745C125.946 30.9745 127.595 30.9745 128.77 29.9417C129.237 29.5859 129.57 29.0848 129.715 28.5189C129.715 28.5189 127.631 28.9564 127.472 26.7776ZM119.496 21.7386C119.497 25.2586 119.497 27.2637 117.245 27.3818C115.464 27.4741 114.906 26.0781 114.864 24.95C114.759 21.7591 116.858 20.3453 119.496 19.6339V21.7386Z" fill="white"/>
<path d="M148.061 29.2345C147.662 29.4028 147.233 29.4884 146.799 29.4862C145.951 29.4736 145.142 29.1269 144.551 28.5224C143.96 27.9178 143.635 27.105 143.648 26.2626C143.661 25.4203 144.01 24.6175 144.619 24.0308C145.228 23.4442 146.047 23.1217 146.895 23.1343C147.7 23.163 148.464 23.4896 149.038 24.0499C149.612 24.6102 149.954 25.3635 149.996 26.1614C150.018 26.5911 149.952 27.0209 149.801 27.4243C149.651 27.8277 149.419 28.1963 149.119 28.5076C148.82 28.8189 148.46 29.0662 148.061 29.2345Z" fill="white"/>
</svg>
